<svg width="113" height="32" viewBox="0 0 113 32" fill="none" xmlns="http://www.w3.org/2000/svg">
<path d="M14.1866 27.152C14.3296 27.4016 14.596 27.5557 14.8845 27.5557H27.4485C27.7386 27.5557 28.0061 27.3999 28.1485 27.1483L31.8869 20.5384C31.9546 20.4186 31.9902 20.2834 31.9902 20.1458V16.2507C31.9902 15.4277 30.8925 15.141 30.4869 15.8581L26.1124 23.5927C25.97 23.8444 25.7025 24.0001 25.4124 24.0001H13.7647C13.1481 24.0001 12.7614 24.6631 13.0668 25.1964L14.1866 27.152Z" fill="#178462"/>
<path d="M7.22466 8.88897C6.93748 8.88897 6.67214 9.04162 6.52869 9.28937L0.133404 20.3344C0.130027 20.3402 0.121076 20.3378 0.121076 20.3311C0.121076 20.3248 0.112967 20.3221 0.10917 20.3272L0.0119639 20.4573C-0.00241513 20.4766 -0.00396237 20.5025 0.0080242 20.5233L4.13031 27.6806C4.20055 27.8026 4.30184 27.904 4.42396 27.9746L7.78602 29.9175C8.49769 30.3288 9.29637 29.5353 8.88506 28.8257L4.33573 20.9764C4.19272 20.7297 4.19227 20.4259 4.33453 20.1787L10.1433 10.0868C10.4503 9.55347 10.0636 8.88897 9.44628 8.88897L7.22466 8.88897Z" fill="#178462"/>
<path d="M10.7548 23.2184C10.7517 23.2132 10.7436 23.2154 10.7436 23.2215C10.7436 23.2277 10.7354 23.2299 10.7323 23.2245L7.80582 18.0642C7.50005 17.525 6.72153 17.5213 6.41058 18.0575L5.31029 19.9549C5.16655 20.2027 5.16674 20.5082 5.31079 20.7559L11.6181 31.6009C11.7618 31.8479 12.0267 32 12.3133 32H20.1767C20.3184 32 20.4575 31.9627 20.58 31.8919L23.9639 29.9364C24.674 29.526 24.3816 28.4444 23.5606 28.4444H14.3834C14.1023 28.4444 13.8416 28.2981 13.6961 28.0586L10.7548 23.2184Z" fill="#178462"/>
<path d="M24.9306 23.1111C25.2181 23.1111 25.4836 22.9582 25.627 22.7101L31.8931 11.865C32.0356 11.6183 32.0358 11.3148 31.8936 11.068L27.9819 4.27617C27.9112 4.15347 27.8091 4.05163 27.6861 3.98101L24.2492 2.00905C23.5389 1.60148 22.7438 2.39067 23.1507 3.09935L27.7774 11.1561C27.9194 11.4034 27.9186 11.7072 27.7754 11.9538L24.9306 16.8506C24.9245 16.8611 24.9083 16.8568 24.9083 16.8446C24.9083 16.8325 24.8921 16.8282 24.8861 16.8387L21.9675 21.9136C21.6608 22.4469 22.0475 23.1111 22.6647 23.1111H24.9306Z" fill="#178462"/>
<path d="M26.7597 12.0439C26.9013 11.7966 26.9003 11.493 26.757 11.2466L20.4482 0.399071C20.3046 0.152074 20.0397 3.52829e-07 19.753 3.40353e-07L11.9339 0C11.7922 -6.16489e-09 11.6531 0.0372851 11.5306 0.108076L8.14673 2.06364C7.43666 2.47399 7.72899 3.55557 8.54997 3.55557L17.7206 3.55557C18.0053 3.55557 18.2687 3.70559 18.413 3.94991L21.2785 8.80004L24.254 13.9836C24.5626 14.5212 25.3413 14.5208 25.6493 13.9829L26.7597 12.0439Z" fill="#178462"/>
<path d="M17.9245 4.84825C17.7816 4.59864 17.5152 4.44454 17.2266 4.44454L4.66266 4.44454C4.37258 4.44454 4.10503 4.60026 3.96268 4.85196L0.224289 11.4618C0.156512 11.5816 0.120904 11.7168 0.120904 11.8544L0.120904 15.783C0.120904 16.6067 1.22027 16.8928 1.62496 16.1744L5.99903 8.40875C6.14119 8.15637 6.40912 8.00011 6.69971 8.00011L18.3465 8.00011C18.963 8.00011 19.3498 7.33714 19.0444 6.80381L17.9245 4.84825Z" fill="#178462"/>
<path d="M57.5118 18.2832H60.4318C60.3732 19.2402 60.1095 20.0898 59.6407 20.832C59.1785 21.5742 58.5307 22.1536 57.6974 22.5703C56.8706 22.987 55.8745 23.1953 54.7091 23.1953C53.7976 23.1953 52.9806 23.0391 52.2579 22.7266C51.5353 22.4076 50.9168 21.9518 50.4025 21.3594C49.8947 20.7669 49.5073 20.0508 49.2404 19.2109C48.9734 18.3711 48.84 17.4303 48.84 16.3887V15.4023C48.84 14.3607 48.9767 13.4199 49.2501 12.5801C49.5301 11.7337 49.9272 11.0143 50.4415 10.4219C50.9624 9.82943 51.5841 9.3737 52.3068 9.05469C53.0294 8.73568 53.8367 8.57617 54.7286 8.57617C55.9135 8.57617 56.9129 8.79102 57.7267 9.2207C58.547 9.65039 59.1818 10.2428 59.631 10.998C60.0867 11.7533 60.3601 12.6126 60.4513 13.5762H57.5216C57.4891 13.0033 57.3751 12.5182 57.1798 12.1211C56.9845 11.7174 56.6883 11.4147 56.2911 11.2129C55.9005 11.0046 55.3797 10.9004 54.7286 10.9004C54.2404 10.9004 53.8139 10.9915 53.4493 11.1738C53.0848 11.3561 52.7788 11.6328 52.5314 12.0039C52.284 12.375 52.0984 12.8438 51.9747 13.4102C51.8575 13.9701 51.799 14.6276 51.799 15.3828V16.3887C51.799 17.1243 51.8543 17.7721 51.965 18.332C52.0756 18.8854 52.2449 19.3542 52.4728 19.7383C52.7072 20.1159 53.0066 20.4023 53.3712 20.5977C53.7423 20.7865 54.1883 20.8809 54.7091 20.8809C55.3211 20.8809 55.8256 20.7832 56.2228 20.5879C56.6199 20.3926 56.9226 20.1029 57.131 19.7188C57.3458 19.3346 57.4728 18.8561 57.5118 18.2832ZM64.924 8V23H62.1115V8H64.924ZM64.5236 17.3457H63.7521C63.7586 16.61 63.8562 15.9329 64.045 15.3145C64.2338 14.6895 64.504 14.1491 64.8556 13.6934C65.2072 13.2311 65.6271 12.873 66.1154 12.6191C66.6101 12.3652 67.157 12.2383 67.756 12.2383C68.2768 12.2383 68.7488 12.3132 69.172 12.4629C69.6017 12.6061 69.9695 12.8405 70.2755 13.166C70.588 13.485 70.8289 13.9049 70.9982 14.4258C71.1674 14.9466 71.2521 15.5781 71.2521 16.3203V23H68.42V16.3008C68.42 15.832 68.3517 15.4642 68.215 15.1973C68.0848 14.9238 67.8927 14.7318 67.6388 14.6211C67.3914 14.5039 67.0854 14.4453 66.7208 14.4453C66.3172 14.4453 65.9721 14.5202 65.6857 14.6699C65.4057 14.8197 65.1811 15.028 65.0118 15.2949C64.8426 15.5553 64.7189 15.8613 64.6407 16.2129C64.5626 16.5645 64.5236 16.9421 64.5236 17.3457ZM79.0939 20.6172V15.9102C79.0939 15.5716 79.0385 15.2819 78.9279 15.041C78.8172 14.7936 78.6447 14.6016 78.4103 14.4648C78.1824 14.3281 77.8862 14.2598 77.5216 14.2598C77.2091 14.2598 76.9389 14.3151 76.7111 14.4258C76.4832 14.5299 76.3074 14.6829 76.1837 14.8848C76.06 15.0801 75.9982 15.3112 75.9982 15.5781H73.1857C73.1857 15.1289 73.2898 14.7025 73.4982 14.2988C73.7065 13.8952 74.0092 13.5404 74.4064 13.2344C74.8035 12.9219 75.2755 12.6777 75.8224 12.502C76.3758 12.3262 76.9943 12.2383 77.6779 12.2383C78.4982 12.2383 79.2273 12.375 79.8654 12.6484C80.5034 12.9219 81.0047 13.332 81.3693 13.8789C81.7404 14.4258 81.9259 15.1094 81.9259 15.9297V20.4512C81.9259 21.0306 81.9617 21.5059 82.0333 21.877C82.1049 22.2415 82.2091 22.5605 82.3458 22.834V23H79.504C79.3673 22.7135 79.2631 22.3555 79.1915 21.9258C79.1264 21.4896 79.0939 21.0534 79.0939 20.6172ZM79.465 16.5645L79.4845 18.1562H77.9122C77.5411 18.1562 77.2189 18.1986 76.9454 18.2832C76.672 18.3678 76.4474 18.4883 76.2716 18.6445C76.0958 18.7943 75.9656 18.9701 75.881 19.1719C75.8029 19.3737 75.7638 19.5951 75.7638 19.8359C75.7638 20.0768 75.8191 20.2949 75.9298 20.4902C76.0405 20.679 76.2 20.8288 76.4083 20.9395C76.6167 21.0436 76.8608 21.0957 77.1407 21.0957C77.5639 21.0957 77.9318 21.0111 78.2443 20.8418C78.5568 20.6725 78.7976 20.4642 78.9669 20.2168C79.1427 19.9694 79.2338 19.735 79.2404 19.5137L79.9825 20.7051C79.8784 20.972 79.7351 21.2487 79.5529 21.5352C79.3771 21.8216 79.1525 22.0918 78.879 22.3457C78.6056 22.5931 78.2768 22.7982 77.8927 22.9609C77.5086 23.1172 77.0529 23.1953 76.5255 23.1953C75.8549 23.1953 75.2462 23.0618 74.6993 22.7949C74.159 22.5215 73.7293 22.1471 73.4103 21.6719C73.0978 21.1901 72.9415 20.6432 72.9415 20.0312C72.9415 19.4779 73.0457 18.9863 73.254 18.5566C73.4624 18.127 73.7684 17.7656 74.172 17.4727C74.5822 17.1732 75.0932 16.9486 75.7052 16.7988C76.3172 16.6426 77.0268 16.5645 77.8341 16.5645H79.465ZM87.0626 12.4336V23H84.2404V12.4336H87.0626ZM84.0646 9.67969C84.0646 9.26953 84.2078 8.93099 84.4943 8.66406C84.7807 8.39714 85.1648 8.26367 85.6466 8.26367C86.1219 8.26367 86.5027 8.39714 86.7892 8.66406C87.0822 8.93099 87.2286 9.26953 87.2286 9.67969C87.2286 10.0898 87.0822 10.4284 86.7892 10.6953C86.5027 10.9622 86.1219 11.0957 85.6466 11.0957C85.1648 11.0957 84.7807 10.9622 84.4943 10.6953C84.2078 10.4284 84.0646 10.0898 84.0646 9.67969ZM92.1407 14.6895V23H89.3282V12.4336H91.965L92.1407 14.6895ZM91.7306 17.3457H90.9689C90.9689 16.5645 91.0698 15.8613 91.2716 15.2363C91.4734 14.6048 91.7566 14.0677 92.1212 13.625C92.4858 13.1758 92.9187 12.834 93.42 12.5996C93.9279 12.3587 94.4943 12.2383 95.1193 12.2383C95.6141 12.2383 96.0665 12.3099 96.4767 12.4531C96.8868 12.5964 97.2384 12.8242 97.5314 13.1367C97.8309 13.4492 98.0587 13.8626 98.215 14.377C98.3777 14.8913 98.4591 15.5195 98.4591 16.2617V23H95.6271V16.252C95.6271 15.7832 95.562 15.4186 95.4318 15.1582C95.3016 14.8978 95.1095 14.7155 94.8556 14.6113C94.6082 14.5007 94.3022 14.4453 93.9376 14.4453C93.56 14.4453 93.2312 14.5202 92.9513 14.6699C92.6779 14.8197 92.45 15.028 92.2677 15.2949C92.0919 15.5553 91.9585 15.8613 91.8673 16.2129C91.7762 16.5645 91.7306 16.9421 91.7306 17.3457ZM103.186 8.78125L105.861 13.7422L108.537 8.78125H111.887L107.756 15.832L111.994 23H108.615L105.861 17.9414L103.108 23H99.7091L103.957 15.832L99.8165 8.78125H103.186Z" fill="#111111"/>
</svg>
