<svg width="113" height="32" viewBox="0 0 113 32" fill="none" xmlns="http://www.w3.org/2000/svg">
<path d="M14.1866 27.152C14.3296 27.4016 14.596 27.5557 14.8845 27.5557H27.4485C27.7386 27.5557 28.0061 27.3999 28.1485 27.1483L31.8869 20.5384C31.9546 20.4186 31.9902 20.2834 31.9902 20.1458V16.2507C31.9902 15.4277 30.8925 15.141 30.4869 15.8581L26.1124 23.5927C25.97 23.8444 25.7025 24.0001 25.4124 24.0001H13.7647C13.1481 24.0001 12.7614 24.6631 13.0668 25.1964L14.1866 27.152Z" fill="#178462"/>
<path d="M7.22466 8.88897C6.93748 8.88897 6.67214 9.04163 6.52869 9.28937L0.133404 20.3344C0.130027 20.3402 0.121076 20.3378 0.121076 20.3311C0.121076 20.3248 0.112967 20.3221 0.10917 20.3272L0.0119639 20.4573C-0.00241513 20.4766 -0.00396237 20.5025 0.0080242 20.5233L4.13031 27.6806C4.20055 27.8026 4.30184 27.904 4.42396 27.9746L7.78602 29.9175C8.49769 30.3288 9.29637 29.5353 8.88506 28.8257L4.33573 20.9764C4.19272 20.7297 4.19227 20.4259 4.33453 20.1787L10.1433 10.0868C10.4503 9.55347 10.0636 8.88897 9.44628 8.88897L7.22466 8.88897Z" fill="#178462"/>
<path d="M10.7548 23.2184C10.7517 23.2132 10.7436 23.2154 10.7436 23.2215C10.7436 23.2277 10.7354 23.2299 10.7323 23.2245L7.80582 18.0642C7.50005 17.525 6.72153 17.5213 6.41058 18.0575L5.31029 19.9549C5.16655 20.2027 5.16675 20.5082 5.31079 20.7559L11.6181 31.6009C11.7618 31.8479 12.0267 32 12.3133 32H20.1767C20.3184 32 20.4575 31.9627 20.58 31.8919L23.9639 29.9364C24.674 29.526 24.3816 28.4444 23.5606 28.4444H14.3834C14.1023 28.4444 13.8416 28.2981 13.6961 28.0586L10.7548 23.2184Z" fill="#178462"/>
<path d="M24.9306 23.1111C25.2181 23.1111 25.4836 22.9582 25.627 22.7101L31.8931 11.865C32.0356 11.6183 32.0358 11.3148 31.8936 11.068L27.9819 4.27617C27.9112 4.15347 27.8091 4.05163 27.6861 3.98101L24.2492 2.00905C23.5389 1.60148 22.7438 2.39067 23.1507 3.09935L27.7774 11.1561C27.9194 11.4034 27.9186 11.7072 27.7754 11.9538L24.9306 16.8506C24.9245 16.8611 24.9083 16.8568 24.9083 16.8446C24.9083 16.8325 24.8921 16.8282 24.8861 16.8387L21.9675 21.9136C21.6608 22.4469 22.0475 23.1111 22.6647 23.1111H24.9306Z" fill="#178462"/>
<path d="M26.7597 12.0439C26.9013 11.7966 26.9003 11.493 26.757 11.2466L20.4482 0.399071C20.3046 0.152074 20.0397 3.52829e-07 19.753 3.40353e-07L11.9339 0C11.7922 -6.16489e-09 11.6531 0.0372851 11.5306 0.108076L8.14673 2.06364C7.43666 2.47399 7.72899 3.55557 8.54997 3.55557L17.7206 3.55557C18.0053 3.55557 18.2687 3.70559 18.413 3.94991L21.2785 8.80004L24.254 13.9836C24.5626 14.5212 25.3413 14.5208 25.6493 13.9829L26.7597 12.0439Z" fill="#178462"/>
<path d="M17.9245 4.84825C17.7816 4.59864 17.5152 4.44454 17.2266 4.44454L4.66266 4.44454C4.37258 4.44454 4.10503 4.60027 3.96268 4.85196L0.224289 11.4618C0.156512 11.5816 0.120904 11.7168 0.120904 11.8544L0.120904 15.783C0.120904 16.6067 1.22027 16.8928 1.62496 16.1744L5.99903 8.40875C6.14119 8.15637 6.40912 8.00011 6.69971 8.00011L18.3465 8.00011C18.963 8.00011 19.3498 7.33714 19.0444 6.80381L17.9245 4.84825Z" fill="#178462"/>
<path d="M57.5117 18.2832H60.4316C60.373 19.2402 60.1094 20.0898 59.6406 20.832C59.1784 21.5742 58.5306 22.1536 57.6973 22.5703C56.8704 22.987 55.8743 23.1953 54.709 23.1953C53.7975 23.1953 52.9805 23.0391 52.2578 22.7266C51.5352 22.4076 50.9167 21.9518 50.4023 21.3594C49.8945 20.7669 49.5072 20.0508 49.2402 19.2109C48.9733 18.3711 48.8398 17.4303 48.8398 16.3887V15.4023C48.8398 14.3607 48.9766 13.4199 49.25 12.5801C49.5299 11.7337 49.9271 11.0143 50.4414 10.4219C50.9622 9.82943 51.584 9.3737 52.3066 9.05469C53.0293 8.73568 53.8366 8.57617 54.7285 8.57617C55.9134 8.57617 56.9128 8.79102 57.7266 9.2207C58.5469 9.65039 59.1816 10.2428 59.6309 10.998C60.0866 11.7533 60.36 12.6126 60.4512 13.5762H57.5215C57.4889 13.0033 57.375 12.5182 57.1797 12.1211C56.9844 11.7174 56.6882 11.4147 56.291 11.2129C55.9004 11.0046 55.3796 10.9004 54.7285 10.9004C54.2402 10.9004 53.8138 10.9915 53.4492 11.1738C53.0846 11.3561 52.7786 11.6328 52.5312 12.0039C52.2839 12.375 52.0983 12.8438 51.9746 13.4102C51.8574 13.9701 51.7988 14.6276 51.7988 15.3828V16.3887C51.7988 17.1243 51.8542 17.7721 51.9648 18.332C52.0755 18.8854 52.2448 19.3542 52.4727 19.7383C52.707 20.1159 53.0065 20.4023 53.3711 20.5977C53.7422 20.7865 54.1882 20.8809 54.709 20.8809C55.321 20.8809 55.8255 20.7832 56.2227 20.5879C56.6198 20.3926 56.9225 20.1029 57.1309 19.7188C57.3457 19.3346 57.4727 18.8561 57.5117 18.2832ZM64.9238 8V23H62.1113V8H64.9238ZM64.5234 17.3457H63.752C63.7585 16.61 63.8561 15.9329 64.0449 15.3145C64.2337 14.6895 64.5039 14.1491 64.8555 13.6934C65.207 13.2311 65.627 12.873 66.1152 12.6191C66.61 12.3652 67.1569 12.2383 67.7559 12.2383C68.2767 12.2383 68.7487 12.3132 69.1719 12.4629C69.6016 12.6061 69.9694 12.8405 70.2754 13.166C70.5879 13.485 70.8288 13.9049 70.998 14.4258C71.1673 14.9466 71.252 15.5781 71.252 16.3203V23H68.4199V16.3008C68.4199 15.832 68.3516 15.4642 68.2148 15.1973C68.0846 14.9238 67.8926 14.7318 67.6387 14.6211C67.3913 14.5039 67.0853 14.4453 66.7207 14.4453C66.3171 14.4453 65.972 14.5202 65.6855 14.6699C65.4056 14.8197 65.181 15.028 65.0117 15.2949C64.8424 15.5553 64.7188 15.8613 64.6406 16.2129C64.5625 16.5645 64.5234 16.9421 64.5234 17.3457ZM79.0938 20.6172V15.9102C79.0938 15.5716 79.0384 15.2819 78.9277 15.041C78.8171 14.7936 78.6445 14.6016 78.4102 14.4648C78.1823 14.3281 77.8861 14.2598 77.5215 14.2598C77.209 14.2598 76.9388 14.3151 76.7109 14.4258C76.4831 14.5299 76.3073 14.6829 76.1836 14.8848C76.0599 15.0801 75.998 15.3112 75.998 15.5781H73.1855C73.1855 15.1289 73.2897 14.7025 73.498 14.2988C73.7064 13.8952 74.0091 13.5404 74.4062 13.2344C74.8034 12.9219 75.2754 12.6777 75.8223 12.502C76.3757 12.3262 76.9941 12.2383 77.6777 12.2383C78.498 12.2383 79.2272 12.375 79.8652 12.6484C80.5033 12.9219 81.0046 13.332 81.3691 13.8789C81.7402 14.4258 81.9258 15.1094 81.9258 15.9297V20.4512C81.9258 21.0306 81.9616 21.5059 82.0332 21.877C82.1048 22.2415 82.209 22.5605 82.3457 22.834V23H79.5039C79.3672 22.7135 79.263 22.3555 79.1914 21.9258C79.1263 21.4896 79.0938 21.0534 79.0938 20.6172ZM79.4648 16.5645L79.4844 18.1562H77.9121C77.541 18.1562 77.2188 18.1986 76.9453 18.2832C76.6719 18.3678 76.4473 18.4883 76.2715 18.6445C76.0957 18.7943 75.9655 18.9701 75.8809 19.1719C75.8027 19.3737 75.7637 19.5951 75.7637 19.8359C75.7637 20.0768 75.819 20.2949 75.9297 20.4902C76.0404 20.679 76.1999 20.8288 76.4082 20.9395C76.6165 21.0436 76.8607 21.0957 77.1406 21.0957C77.5638 21.0957 77.9316 21.0111 78.2441 20.8418C78.5566 20.6725 78.7975 20.4642 78.9668 20.2168C79.1426 19.9694 79.2337 19.735 79.2402 19.5137L79.9824 20.7051C79.8783 20.972 79.735 21.2487 79.5527 21.5352C79.377 21.8216 79.1523 22.0918 78.8789 22.3457C78.6055 22.5931 78.2767 22.7982 77.8926 22.9609C77.5085 23.1172 77.0527 23.1953 76.5254 23.1953C75.8548 23.1953 75.2461 23.0618 74.6992 22.7949C74.1589 22.5215 73.7292 22.1471 73.4102 21.6719C73.0977 21.1901 72.9414 20.6432 72.9414 20.0312C72.9414 19.4779 73.0456 18.9863 73.2539 18.5566C73.4622 18.127 73.7682 17.7656 74.1719 17.4727C74.582 17.1732 75.0931 16.9486 75.7051 16.7988C76.3171 16.6426 77.0267 16.5645 77.834 16.5645H79.4648ZM87.0625 12.4336V23H84.2402V12.4336H87.0625ZM84.0645 9.67969C84.0645 9.26953 84.2077 8.93099 84.4941 8.66406C84.7806 8.39714 85.1647 8.26367 85.6465 8.26367C86.1217 8.26367 86.5026 8.39714 86.7891 8.66406C87.082 8.93099 87.2285 9.26953 87.2285 9.67969C87.2285 10.0898 87.082 10.4284 86.7891 10.6953C86.5026 10.9622 86.1217 11.0957 85.6465 11.0957C85.1647 11.0957 84.7806 10.9622 84.4941 10.6953C84.2077 10.4284 84.0645 10.0898 84.0645 9.67969ZM92.1406 14.6895V23H89.3281V12.4336H91.9648L92.1406 14.6895ZM91.7305 17.3457H90.9688C90.9688 16.5645 91.0697 15.8613 91.2715 15.2363C91.4733 14.6048 91.7565 14.0677 92.1211 13.625C92.4857 13.1758 92.9186 12.834 93.4199 12.5996C93.9277 12.3587 94.4941 12.2383 95.1191 12.2383C95.6139 12.2383 96.0664 12.3099 96.4766 12.4531C96.8867 12.5964 97.2383 12.8242 97.5312 13.1367C97.8307 13.4492 98.0586 13.8626 98.2148 14.377C98.3776 14.8913 98.459 15.5195 98.459 16.2617V23H95.627V16.252C95.627 15.7832 95.5618 15.4186 95.4316 15.1582C95.3014 14.8978 95.1094 14.7155 94.8555 14.6113C94.6081 14.5007 94.3021 14.4453 93.9375 14.4453C93.5599 14.4453 93.2311 14.5202 92.9512 14.6699C92.6777 14.8197 92.4499 15.028 92.2676 15.2949C92.0918 15.5553 91.9583 15.8613 91.8672 16.2129C91.776 16.5645 91.7305 16.9421 91.7305 17.3457ZM103.186 8.78125L105.861 13.7422L108.537 8.78125H111.887L107.756 15.832L111.994 23H108.615L105.861 17.9414L103.107 23H99.709L103.957 15.832L99.8164 8.78125H103.186Z" fill="white"/>
</svg>
