<svg width="700" height="320" viewBox="0 0 700 320" fill="none" xmlns="http://www.w3.org/2000/svg">
<g clip-path="url(#clip0_13_47)">
<mask id="mask0_13_47" style="mask-type:luminance" maskUnits="userSpaceOnUse" x="0" y="0" width="700" height="320">
<path d="M684 0H16C7.16344 0 0 7.16344 0 16V304C0 312.837 7.16344 320 16 320H684C692.837 320 700 312.837 700 304V16C700 7.16344 692.837 0 684 0Z" fill="white"/>
</mask>
<g mask="url(#mask0_13_47)">
<path d="M684 0H16C7.16344 0 0 7.16344 0 16V304C0 312.837 7.16344 320 16 320H684C692.837 320 700 312.837 700 304V16C700 7.16344 692.837 0 684 0Z" fill="url(#paint0_linear_13_47)"/>
<g opacity="0.8" filter="url(#filter0_f_13_47)">
<path d="M660 100C748.366 100 820 28.3656 820 -60C820 -148.366 748.366 -220 660 -220C571.634 -220 500 -148.366 500 -60C500 28.3656 571.634 100 660 100Z" fill="#18E299" fill-opacity="0.4"/>
</g>
<g opacity="0.8" filter="url(#filter1_f_13_47)">
<path d="M20 373C108.366 373 180 301.366 180 213C180 124.634 108.366 53 20 53C-68.3656 53 -140 124.634 -140 213C-140 301.366 -68.3656 373 20 373Z" fill="#18E299" fill-opacity="0.33"/>
</g>
<g opacity="0.8" filter="url(#filter2_f_13_47)">
</g>
<g opacity="0.8" filter="url(#filter3_f_13_47)">
<path d="M20 573C108.366 573 180 501.366 180 413C180 324.634 108.366 253 20 253C-68.3656 253 -140 324.634 -140 413C-140 501.366 -68.3656 573 20 573Z" fill="#18E299" fill-opacity="0.22"/>
</g>
<g style="mix-blend-mode:overlay" opacity="0.1">
<path d="M0 50H700" stroke="black" stroke-dasharray="4 4"/>
</g>
<g style="mix-blend-mode:overlay" opacity="0.1">
<path d="M0 82H700" stroke="black" stroke-dasharray="4 4"/>
</g>
<g style="mix-blend-mode:overlay" opacity="0.1">
<path d="M239 0V320" stroke="black" stroke-dasharray="4 4"/>
</g>
<g style="mix-blend-mode:overlay" opacity="0.1">
<path d="M271 0V320" stroke="black" stroke-dasharray="4 4"/>
</g>
<g style="mix-blend-mode:overlay" opacity="0.1">
<path d="M461 0V320" stroke="black" stroke-dasharray="4 4"/>
</g>
<g style="mix-blend-mode:overlay" opacity="0.1">
<path d="M350 0V320" stroke="url(#paint1_linear_13_47)"/>
</g>
<g style="mix-blend-mode:overlay" opacity="0.1">
<path d="M429 0V320" stroke="black" stroke-dasharray="4 4"/>
</g>
<g style="mix-blend-mode:overlay" opacity="0.1">
<path d="M0 271H700" stroke="black" stroke-dasharray="4 4"/>
</g>
<g style="mix-blend-mode:overlay" opacity="0.1">
<path d="M0 239H700" stroke="black" stroke-dasharray="4 4"/>
</g>
<g style="mix-blend-mode:overlay" opacity="0.1">
<path d="M0 160H700" stroke="url(#paint2_linear_13_47)"/>
</g>
<g style="mix-blend-mode:overlay" opacity="0.1">
<path d="M511 -1L189 321" stroke="url(#paint3_linear_13_47)"/>
</g>
<g style="mix-blend-mode:overlay" opacity="0.1">
<path d="M511 321L189 -1" stroke="url(#paint4_linear_13_47)"/>
</g>
<g style="mix-blend-mode:overlay" opacity="0.05">
<path d="M350 271C411.304 271 461 221.304 461 160C461 98.6964 411.304 49 350 49C288.696 49 239 98.6964 239 160C239 221.304 288.696 271 350 271Z" stroke="black"/>
</g>
<g style="mix-blend-mode:overlay" opacity="0.05">
<path d="M350 239C393.63 239 429 203.63 429 160C429 116.37 393.63 81 350 81C306.37 81 271 116.37 271 160C271 203.63 306.37 239 350 239Z" stroke="black"/>
</g>
</g>
<path d="M226.442 227.824L172.749 197.497C171.461 196.768 170.393 195.72 169.649 194.46C168.906 193.199 168.514 191.77 168.512 190.314V129.686C168.509 128.226 168.899 126.792 169.643 125.527C170.386 124.261 171.458 123.21 172.749 122.478L226.442 92.1759C227.734 91.4464 229.199 91.0624 230.691 91.0624C232.183 91.0624 233.648 91.4464 234.94 92.1759L288.608 122.503C289.899 123.234 290.971 124.286 291.714 125.551C292.458 126.816 292.848 128.251 292.845 129.71V190.314C292.848 191.774 292.458 193.208 291.714 194.473C290.971 195.739 289.899 196.79 288.608 197.522L234.94 227.824C233.648 228.553 232.183 228.937 230.691 228.937C229.199 228.937 227.734 228.553 226.442 227.824Z" fill="#3B6064"/>
<path d="M259.768 163.946V130.978L241.865 121.034H224.071L250.927 135.95V150.975V168.918L259.768 163.946Z" fill="#95E1D3"/>
<path d="M213.351 182.645L241.865 198.858H241.754L242.196 199.183L260.542 188.806L269.383 173.782L242.417 189.13L213.351 172.701V182.645Z" fill="#95E1D3"/>
<path d="M248.938 172.917H249.048L233.133 181.78L241.865 186.753L270.82 170.215V149.354L261.979 134.329V165.135L248.938 172.917Z" fill="#95E1D3"/>
<path d="M248.717 137.139L219.761 120.71L201.415 131.086L192.574 146.219L219.982 130.762L233.244 138.328H233.023L248.717 147.192V137.139Z" fill="#95E1D3"/>
<path d="M220.203 133.248L191.247 149.785V170.539L200.089 185.563V154.758L213.13 147.191L229.045 138.22L220.203 133.248Z" fill="#95E1D3"/>
<path d="M202.299 155.947V188.914L220.203 198.858H238.107L211.14 183.942V168.918V150.975L202.299 155.947Z" fill="#95E1D3"/>
<path d="M321.999 187.958C321.391 187.731 320.847 187.482 320.365 187.211C319.883 186.941 319.472 186.618 319.133 186.242C318.794 185.867 318.531 185.417 318.343 184.894C318.156 184.37 318.062 183.741 318.062 183.008C318.062 182.117 318.218 181.332 318.531 180.651C318.843 179.97 319.285 179.398 319.856 178.935C320.428 178.472 321.115 178.123 321.918 177.888C322.721 177.652 323.623 177.534 324.623 177.534C325.533 177.534 326.386 177.613 327.18 177.77C327.975 177.927 328.809 178.154 329.684 178.451C329.577 179.463 329.291 180.459 328.827 181.436L328.024 181.122C327.738 181.017 327.439 180.93 327.127 180.86C326.814 180.79 326.462 180.733 326.069 180.69C325.676 180.646 325.23 180.625 324.73 180.625C324.427 180.625 324.118 180.651 323.806 180.703C323.494 180.755 323.212 180.852 322.963 180.991C322.713 181.131 322.507 181.336 322.347 181.606C322.186 181.877 322.106 182.231 322.106 182.667C322.106 183.016 322.168 183.309 322.293 183.545C322.418 183.781 322.588 183.981 322.802 184.147C323.016 184.313 323.257 184.448 323.525 184.553L324.328 184.894L325.935 185.496C326.614 185.758 327.229 186.028 327.783 186.308C328.336 186.587 328.805 186.932 329.189 187.342C329.572 187.753 329.872 188.25 330.086 188.835C330.3 189.42 330.407 190.149 330.407 191.022C330.407 191.895 330.242 192.698 329.911 193.432C329.581 194.165 329.104 194.794 328.479 195.317C327.854 195.841 327.082 196.251 326.163 196.548C325.243 196.845 324.186 196.993 322.989 196.993C322.4 196.993 321.874 196.976 321.409 196.941C320.945 196.906 320.503 196.849 320.084 196.771C319.664 196.692 319.249 196.592 318.839 196.47C318.428 196.347 318 196.199 317.553 196.024C317.607 195.518 317.705 194.99 317.848 194.44C317.991 193.89 318.16 193.335 318.357 192.777C319.106 193.074 319.812 193.296 320.472 193.445C321.133 193.593 321.838 193.667 322.588 193.667C323.712 193.667 324.596 193.462 325.239 193.052C325.882 192.641 326.203 192.017 326.203 191.179C326.203 190.76 326.127 190.411 325.975 190.132C325.823 189.852 325.627 189.616 325.386 189.424C325.145 189.232 324.873 189.071 324.569 188.94C324.266 188.809 323.953 188.682 323.632 188.56L321.999 187.958ZM336.968 181.096H332.174C332.067 180.572 332.014 180.031 332.014 179.472C332.014 178.914 332.067 178.372 332.174 177.848H345.698C345.805 178.372 345.858 178.914 345.858 179.472C345.858 180.031 345.805 180.572 345.698 181.096H340.904V196.679L339.94 196.758C339.619 196.793 339.306 196.81 339.003 196.81C338.699 196.81 338.374 196.801 338.025 196.784C337.677 196.766 337.325 196.732 336.968 196.679V181.096ZM352.874 177.848C353.249 177.796 353.606 177.757 353.946 177.73C354.285 177.704 354.659 177.691 355.07 177.691C355.427 177.691 355.775 177.704 356.115 177.73C356.454 177.757 356.828 177.796 357.239 177.848L363.264 196.679C362.532 196.784 361.823 196.836 361.135 196.836C360.448 196.836 359.783 196.784 359.14 196.679L358.069 192.908H351.696L350.598 196.679C349.956 196.784 349.339 196.836 348.75 196.836C348.09 196.836 347.438 196.784 346.796 196.679L352.874 177.848ZM357.159 189.739L354.936 181.829L352.606 189.739H357.159ZM369.825 189.948L363.827 177.848C364.576 177.744 365.326 177.691 366.076 177.691C366.755 177.691 367.433 177.744 368.111 177.848L371.914 186.386L375.663 177.848C376.323 177.744 377.002 177.691 377.698 177.691C378.341 177.691 379.028 177.744 379.76 177.848L373.762 189.948V196.705C373.405 196.758 373.065 196.793 372.744 196.81C372.423 196.827 372.106 196.836 371.793 196.836C371.481 196.836 371.16 196.827 370.829 196.81C370.499 196.793 370.164 196.758 369.825 196.705V189.948ZM391.301 187.958C390.695 187.731 390.15 187.482 389.668 187.211C389.186 186.941 388.775 186.618 388.436 186.242C388.097 185.867 387.834 185.417 387.646 184.894C387.459 184.37 387.365 183.741 387.365 183.008C387.365 182.117 387.521 181.332 387.834 180.651C388.146 179.97 388.588 179.398 389.159 178.935C389.731 178.472 390.418 178.123 391.221 177.888C392.025 177.652 392.926 177.534 393.926 177.534C394.836 177.534 395.689 177.613 396.483 177.77C397.278 177.927 398.112 178.154 398.987 178.451C398.88 179.463 398.594 180.459 398.13 181.436L397.327 181.122C397.041 181.017 396.742 180.93 396.43 180.86C396.117 180.79 395.765 180.733 395.372 180.69C394.979 180.646 394.533 180.625 394.033 180.625C393.729 180.625 393.422 180.651 393.109 180.703C392.797 180.755 392.516 180.852 392.266 180.991C392.016 181.131 391.811 181.336 391.65 181.606C391.489 181.877 391.409 182.231 391.409 182.667C391.409 183.016 391.471 183.309 391.596 183.545C391.721 183.781 391.891 183.981 392.105 184.147C392.319 184.313 392.56 184.448 392.828 184.553L393.631 184.894L395.238 185.496C395.916 185.758 396.532 186.028 397.086 186.308C397.639 186.587 398.108 186.932 398.492 187.342C398.876 187.753 399.174 188.25 399.389 188.835C399.603 189.42 399.71 190.149 399.71 191.022C399.71 191.895 399.545 192.698 399.215 193.432C398.884 194.165 398.407 194.794 397.782 195.317C397.157 195.841 396.385 196.251 395.466 196.548C394.546 196.845 393.488 196.993 392.292 196.993C391.703 196.993 391.177 196.976 390.713 196.941C390.248 196.906 389.806 196.849 389.387 196.771C388.968 196.692 388.552 196.592 388.142 196.47C387.731 196.347 387.303 196.199 386.856 196.024C386.91 195.518 387.008 194.99 387.151 194.44C387.294 193.89 387.463 193.335 387.66 192.777C388.409 193.074 389.114 193.296 389.775 193.445C390.436 193.593 391.141 193.667 391.891 193.667C393.015 193.667 393.899 193.462 394.542 193.052C395.184 192.641 395.506 192.017 395.506 191.179C395.506 190.76 395.43 190.411 395.278 190.132C395.127 189.852 394.93 189.616 394.689 189.424C394.448 189.232 394.176 189.071 393.872 188.94C393.569 188.809 393.256 188.682 392.935 188.56L391.301 187.958ZM406.994 177.848C407.369 177.796 407.726 177.757 408.065 177.73C408.404 177.704 408.779 177.691 409.19 177.691C409.547 177.691 409.895 177.704 410.234 177.73C410.573 177.757 410.948 177.796 411.359 177.848L417.384 196.679C416.652 196.784 415.942 196.836 415.255 196.836C414.568 196.836 413.903 196.784 413.26 196.679L412.189 192.908H405.816L404.718 196.679C404.075 196.784 403.459 196.836 402.87 196.836C402.209 196.836 401.558 196.784 400.915 196.679L406.994 177.848ZM411.278 189.739L409.056 181.829L406.726 189.739H411.278ZM419.553 177.848H430.479C430.586 178.372 430.639 178.914 430.639 179.472C430.639 180.031 430.586 180.572 430.479 181.096H423.463V185.522H429.033C429.14 186.081 429.193 186.631 429.193 187.172C429.193 187.713 429.14 188.254 429.033 188.796H423.463V196.679C422.784 196.784 422.142 196.836 421.535 196.836C420.874 196.836 420.214 196.784 419.553 196.679V177.848ZM433.13 177.848H444.055C444.162 178.372 444.216 178.914 444.216 179.472C444.216 180.031 444.162 180.572 444.055 181.096H437.039V185.182H442.609C442.717 185.74 442.77 186.29 442.77 186.832C442.77 187.373 442.717 187.914 442.609 188.455H437.039V193.432H444.243C444.35 193.955 444.403 194.497 444.403 195.055C444.403 195.614 444.35 196.155 444.243 196.679H433.13V177.848ZM448.153 192.908C448.456 192.838 448.759 192.79 449.063 192.764C449.367 192.738 449.661 192.725 449.947 192.725C450.232 192.725 450.545 192.738 450.884 192.764C451.223 192.79 451.544 192.838 451.848 192.908L449.893 199.612C449.59 199.682 449.286 199.726 448.983 199.743C448.679 199.761 448.385 199.769 448.099 199.769C447.813 199.769 447.532 199.761 447.256 199.743C446.979 199.726 446.689 199.682 446.385 199.612L448.153 192.908ZM464.541 187.958C463.934 187.731 463.39 187.482 462.908 187.211C462.426 186.941 462.015 186.618 461.676 186.242C461.337 185.867 461.073 185.417 460.886 184.894C460.698 184.37 460.605 183.741 460.605 183.008C460.605 182.117 460.761 181.332 461.073 180.651C461.386 179.97 461.828 179.398 462.399 178.935C462.97 178.472 463.658 178.123 464.461 177.888C465.264 177.652 466.166 177.534 467.165 177.534C468.076 177.534 468.928 177.613 469.721 177.77C470.517 177.927 471.352 178.154 472.226 178.451C472.12 179.463 471.833 180.459 471.37 181.436L470.565 181.122C470.281 181.017 469.981 180.93 469.67 180.86C469.357 180.79 469.004 180.733 468.612 180.69C468.219 180.646 467.772 180.625 467.272 180.625C466.969 180.625 466.661 180.651 466.349 180.703C466.036 180.755 465.755 180.852 465.505 180.991C465.255 181.131 465.05 181.336 464.889 181.606C464.729 181.877 464.648 182.231 464.648 182.667C464.648 183.016 464.711 183.309 464.836 183.545C464.961 183.781 465.13 183.981 465.344 184.147C465.559 184.313 465.8 184.448 466.067 184.553L466.871 184.894L468.478 185.496C469.156 185.758 469.773 186.028 470.326 186.308C470.88 186.587 471.349 186.932 471.73 187.342C472.114 187.753 472.413 188.25 472.628 188.835C472.843 189.42 472.949 190.149 472.949 191.022C472.949 191.895 472.785 192.698 472.453 193.432C472.123 194.165 471.645 194.794 471.022 195.317C470.396 195.841 469.625 196.251 468.705 196.548C467.786 196.845 466.728 196.993 465.532 196.993C464.943 196.993 464.416 196.976 463.952 196.941C463.488 196.906 463.046 196.849 462.626 196.771C462.207 196.692 461.792 196.592 461.381 196.47C460.971 196.347 460.542 196.199 460.096 196.024C460.149 195.518 460.248 194.99 460.39 194.44C460.533 193.89 460.703 193.335 460.899 192.777C461.649 193.074 462.354 193.296 463.015 193.445C463.675 193.593 464.38 193.667 465.13 193.667C466.255 193.667 467.139 193.462 467.781 193.052C468.424 192.641 468.745 192.017 468.745 191.179C468.745 190.76 468.67 190.411 468.518 190.132C468.366 189.852 468.17 189.616 467.929 189.424C467.687 189.232 467.415 189.071 467.112 188.94C466.808 188.809 466.496 188.682 466.174 188.56L464.541 187.958ZM488.481 193.117C488.714 193.606 488.905 194.108 489.056 194.623C489.21 195.138 489.319 195.658 489.392 196.182C488.463 196.513 487.628 196.732 486.887 196.836C486.146 196.941 485.347 196.993 484.491 196.993C482.973 196.993 481.645 196.753 480.502 196.273C479.358 195.793 478.399 195.121 477.622 194.257C476.845 193.392 476.261 192.367 475.868 191.179C475.474 189.992 475.278 188.7 475.278 187.303C475.278 185.906 475.484 184.61 475.895 183.414C476.306 182.218 476.899 181.183 477.677 180.31C478.454 179.437 479.407 178.756 480.541 178.267C481.675 177.778 482.964 177.534 484.41 177.534C485.269 177.534 486.058 177.586 486.781 177.691C487.504 177.796 488.284 178.014 489.125 178.346C489.089 178.87 488.98 179.38 488.802 179.878C488.623 180.376 488.427 180.878 488.215 181.384C487.589 181.175 487.035 181.026 486.554 180.939C486.07 180.852 485.499 180.808 484.839 180.808C483.124 180.808 481.808 181.354 480.889 182.445C479.969 183.536 479.51 185.155 479.51 187.303C479.51 191.563 481.358 193.693 485.054 193.693C485.713 193.693 486.294 193.65 486.793 193.563C487.295 193.475 487.855 193.327 488.481 193.117ZM496.781 177.848C497.156 177.796 497.513 177.757 497.855 177.73C498.194 177.704 498.569 177.691 498.977 177.691C499.334 177.691 499.685 177.704 500.024 177.73C500.362 177.757 500.738 177.796 501.149 177.848L507.171 196.679C506.439 196.784 505.731 196.836 505.045 196.836C504.355 196.836 503.693 196.784 503.048 196.679L501.978 192.908H495.604L494.506 196.679C493.862 196.784 493.248 196.836 492.658 196.836C491.999 196.836 491.346 196.784 490.704 196.679L496.781 177.848ZM501.067 189.739L498.844 181.829L496.515 189.739H501.067ZM509.343 177.848C509.897 177.744 510.432 177.691 510.949 177.691C511.466 177.691 512.011 177.744 512.583 177.848L520.027 189.843V177.848C520.668 177.744 521.276 177.691 521.848 177.691C522.419 177.691 522.964 177.744 523.481 177.848V196.679C522.909 196.784 522.383 196.836 521.902 196.836C521.418 196.836 520.883 196.784 520.293 196.679L512.797 184.71V196.679C512.226 196.784 511.645 196.836 511.055 196.836C510.465 196.836 509.897 196.784 509.343 196.679V177.848ZM527.283 177.848C527.979 177.744 528.672 177.691 529.358 177.691C530.045 177.691 530.737 177.744 531.433 177.848L531.167 190.655C530.541 190.76 529.936 190.813 529.346 190.813C528.756 190.813 528.157 190.76 527.552 190.655L527.283 177.848ZM527.392 196.679C527.283 196.033 527.229 195.396 527.229 194.767C527.229 194.139 527.283 193.493 527.392 192.829C528.051 192.725 528.702 192.672 529.346 192.672C529.987 192.672 530.65 192.725 531.327 192.829C531.433 193.493 531.488 194.139 531.488 194.767C531.488 195.396 531.433 196.033 531.327 196.679C530.65 196.784 529.987 196.836 529.346 196.836C528.702 196.836 528.051 196.784 527.392 196.679Z" fill="#3B6064"/>
<path d="M360.194 128.024C360.254 126.088 360.194 124.503 360.194 122.625C360.194 120.453 356.174 120.688 354.733 120.747C348.312 121.158 342.191 125.149 339.25 130.607C338.41 132.192 337.81 133.835 337.39 135.537C336.369 139.529 336.309 143.755 336.79 147.805C337.21 151.62 338.23 155.435 340.63 158.487C344.771 163.828 352.393 165.706 358.934 164.708C359.234 164.65 359.534 164.591 359.774 164.415C359.954 164.297 360.134 164.063 360.134 163.828L360.314 160.482C360.374 159.426 360.314 159.484 360.314 158.428C360.314 157.019 357.314 158.076 355.453 158.076C353.653 158.076 351.733 158.017 350.112 157.195C347.232 155.611 345.611 152.441 344.711 149.448C343.691 146.22 343.451 142.757 344.051 139.47C344.771 135.185 346.872 130.255 351.492 128.788C354.133 127.907 356.954 128.201 359.594 128.494C359.954 128.553 360.194 128.318 360.194 128.024ZM384.319 147.746C384.319 150.387 384.259 155.611 384.199 155.611V163.593C384.199 163.945 384.139 164.532 384.319 164.884C384.499 165.295 385.04 165.178 385.399 165.119C387.14 164.943 388.88 165.178 390.621 165.119C392.541 165.06 391.941 162.184 391.881 161.011C391.641 158.428 391.941 138.766 391.941 131.722C391.941 128.553 391.821 122.038 391.641 121.745C391.341 121.216 390.561 121.099 389.961 121.04C388.64 120.805 387.98 121.158 386 121.158C384.019 121.158 383.899 121.745 383.899 123.799V125.56C383.839 126.968 384.079 136.829 384.079 138.413C384.079 139.177 384.019 139.235 383.239 139.235C381.259 139.177 378.498 139.411 376.458 139.235C373.517 139 374.177 139.235 373.997 136.594V136.242C373.997 132.485 374.477 122.742 374.297 122.155C373.997 121.275 373.637 121.099 372.857 121.158C371.056 121.275 369.196 120.981 367.396 121.099C366.796 121.158 366.616 121.334 366.436 121.921C366.376 122.214 366.315 122.508 366.315 122.801C366.315 124.62 366.436 127.086 366.496 128.905L366.315 163.71C366.315 165.236 367.696 165.06 370.756 165.06C373.577 165.06 374.297 165.706 374.297 162.419C374.297 159.778 374.117 156.432 374.177 153.791C374.237 151.737 374.177 149.741 374.177 147.687C374.237 146.924 374.417 146.689 375.137 146.689C377.778 146.631 380.658 146.689 383.299 146.689C384.139 146.689 384.319 146.807 384.319 147.746Z" fill="#3B6064"/>
<path d="M430.791 136.521L414.625 120.71L398.458 136.521L414.625 152.33L430.791 136.521ZM414.625 129.084L422.227 136.519L414.625 143.956L407.022 136.521L414.625 129.084Z" fill="#3B6064"/>
<path d="M430.86 141.512L422.812 149.384V165.181H430.86V141.512Z" fill="#3B6064"/>
<path d="M406.437 149.384L398.389 141.512V165.181H406.437V149.384Z" fill="#3B6064"/>
<path d="M445.884 149.871C445.702 143.143 445.763 136.002 445.823 129.333C445.823 127.268 445.702 125.025 445.702 122.959C445.702 120.717 444.797 120.835 443.59 120.776C441.841 120.717 441.056 120.717 439.306 120.717C438.159 120.658 437.677 120.953 437.677 122.074C437.677 127.858 437.496 144.205 437.556 146.566C437.616 148.927 437.858 159.668 437.737 162.029C437.677 162.855 437.737 163.681 437.797 164.507C437.858 164.802 438.039 165.097 438.521 165.097C440.513 164.979 442.384 164.979 444.375 164.92C445.099 164.861 445.702 164.685 446.004 163.917C446.064 163.504 445.884 152.704 445.884 149.871ZM477.743 122.192C477.925 123.018 477.804 162.324 477.804 163.327C477.804 165.097 477.141 165.038 475.934 165.038C474.122 165.038 471.591 165.334 471.046 164.743C470.562 164.33 461.633 143.261 460.366 140.605C460.245 140.369 459.943 139.779 459.702 139.897C459.4 140.015 459.521 140.429 459.521 140.665C459.461 142.73 459.823 160.553 459.823 163.386C459.823 164.802 459.762 165.038 458.555 165.038H455.538C454.754 165.038 453.788 164.979 453.004 165.097C452.4 165.097 452.099 164.92 452.038 164.33V159.668C452.159 154.71 452.038 125.32 452.038 123.136C452.038 121.248 452.581 120.894 454.512 120.894C455.84 120.835 457.168 120.835 458.495 120.835C458.917 120.835 459.159 120.894 459.4 121.425C461.03 125.143 467.969 142.199 469.055 144.265C469.236 144.678 469.9 146.33 470.263 146.507H470.323C470.562 146.271 470.505 145.091 470.505 144.737C470.505 143.851 470.021 123.136 470.021 122.723C470.021 122.133 469.839 121.602 470.142 121.189C470.323 120.953 471.107 120.894 471.409 120.835C473.097 120.717 475.09 120.894 476.778 120.835C477.625 120.835 477.565 121.425 477.743 122.192ZM491.984 120.776C490.659 120.835 487.099 120.776 486.615 120.776C485.771 120.717 485.226 121.189 485.287 122.015C485.287 122.369 485.408 122.723 485.589 123.018C487.338 126.264 488.968 129.924 490.538 133.228L494.34 141.018C494.7 141.786 494.458 142.435 494.159 143.202C493.977 143.615 493.856 144.087 493.675 144.501C491.321 149.93 488.666 155.419 485.831 160.612C485.226 161.734 484.564 162.914 484.02 164.035C483.297 165.452 485.71 165.097 488.424 165.097C492.71 165.097 492.77 164.861 493.012 164.33C493.675 162.973 497.658 150.933 498.805 150.933C499.709 150.933 504.174 162.56 505.199 164.448C505.441 164.92 506.228 165.156 506.829 165.156H510.995C511.778 165.156 513.647 165.392 513.647 164.389C513.647 163.622 510.632 158.665 509.788 156.835L506.107 148.809C505.502 147.51 504.96 146.212 504.355 144.973C503.932 143.969 503.148 142.671 503.088 141.609C503.088 141.018 509.906 128.094 512.44 122.015C513.045 120.54 510.753 120.835 509.966 120.835C508.52 120.894 507.313 120.835 505.925 120.894C504.597 120.894 504.234 121.248 503.753 122.369L503.39 123.195C502.183 125.674 500.432 130.218 499.165 132.697C499.107 132.815 498.926 132.992 498.805 132.992C498.623 132.992 498.442 132.815 498.442 132.638C497.416 130.1 495.305 124.73 494.098 122.31C493.554 121.248 493.251 120.717 491.984 120.776Z" fill="#3B6064"/>
</g>
<defs>
<filter id="filter0_f_13_47" x="260" y="-460" width="800" height="800" filterUnits="userSpaceOnUse" color-interpolation-filters="sRGB">
<feFlood flood-opacity="0" result="BackgroundImageFix"/>
<feBlend mode="normal" in="SourceGraphic" in2="BackgroundImageFix" result="shape"/>
<feGaussianBlur stdDeviation="120" result="effect1_foregroundBlur_13_47"/>
</filter>
<filter id="filter1_f_13_47" x="-380" y="-187" width="800" height="800" filterUnits="userSpaceOnUse" color-interpolation-filters="sRGB">
<feFlood flood-opacity="0" result="BackgroundImageFix"/>
<feBlend mode="normal" in="SourceGraphic" in2="BackgroundImageFix" result="shape"/>
<feGaussianBlur stdDeviation="120" result="effect1_foregroundBlur_13_47"/>
</filter>
<filter id="filter2_f_13_47" x="260" y="80" width="800" height="800" filterUnits="userSpaceOnUse" color-interpolation-filters="sRGB">
<feFlood flood-opacity="0" result="BackgroundImageFix"/>
<feBlend mode="normal" in="SourceGraphic" in2="BackgroundImageFix" result="shape"/>
<feGaussianBlur stdDeviation="120" result="effect1_foregroundBlur_13_47"/>
</filter>
<filter id="filter3_f_13_47" x="-380" y="13" width="800" height="800" filterUnits="userSpaceOnUse" color-interpolation-filters="sRGB">
<feFlood flood-opacity="0" result="BackgroundImageFix"/>
<feBlend mode="normal" in="SourceGraphic" in2="BackgroundImageFix" result="shape"/>
<feGaussianBlur stdDeviation="120" result="effect1_foregroundBlur_13_47"/>
</filter>
<linearGradient id="paint0_linear_13_47" x1="1.27814e-05" y1="320" x2="710.784" y2="26.0793" gradientUnits="userSpaceOnUse">
<stop stop-color="#18E299" stop-opacity="0.09"/>
<stop offset="0.729167" stop-color="#0D9373" stop-opacity="0.08"/>
</linearGradient>
<linearGradient id="paint1_linear_13_47" x1="nan" y1="nan" x2="nan" y2="nan" gradientUnits="userSpaceOnUse">
<stop stop-opacity="0"/>
<stop offset="0.0001" stop-opacity="0.3"/>
<stop offset="0.333333"/>
<stop offset="0.666667"/>
<stop offset="1" stop-opacity="0.3"/>
</linearGradient>
<linearGradient id="paint2_linear_13_47" x1="nan" y1="nan" x2="nan" y2="nan" gradientUnits="userSpaceOnUse">
<stop stop-opacity="0.1"/>
<stop offset="0.5"/>
<stop offset="1" stop-opacity="0.1"/>
</linearGradient>
<linearGradient id="paint3_linear_13_47" x1="511" y1="-1" x2="189" y2="321" gradientUnits="userSpaceOnUse">
<stop stop-opacity="0.1"/>
<stop offset="0.5"/>
<stop offset="1" stop-opacity="0.1"/>
</linearGradient>
<linearGradient id="paint4_linear_13_47" x1="511" y1="321" x2="189" y2="-1" gradientUnits="userSpaceOnUse">
<stop stop-opacity="0.1"/>
<stop offset="0.5"/>
<stop offset="1" stop-opacity="0.1"/>
</linearGradient>
<clipPath id="clip0_13_47">
<rect width="700" height="320" fill="white"/>
</clipPath>
</defs>
</svg>
